# Blender 4.0.2
# www.blender.org
o Cube.005
v -0.953903 -0.001439 1.234028
v -0.953903 0.119937 1.234028
v -0.953903 -0.001439 1.026970
v -0.953903 0.119937 1.026970
v -0.627194 -0.001439 1.234028
v -0.627194 0.119937 1.234028
v -0.627194 -0.001439 1.026970
v -0.627194 0.119937 1.026970
v -0.184507 2.386101 -1.222697
v -0.184507 0.386101 -1.222697
v -0.184507 2.386101 1.222697
v -0.184507 0.386101 1.222697
v 0.184507 2.327431 -1.150961
v 0.184507 0.444772 -1.150961
v 0.184507 2.327431 1.150961
v 0.184507 0.444772 1.150961
v -0.184507 2.254711 -1.062047
v -0.184507 0.517492 -1.062047
v -0.184507 2.254711 1.062047
v -0.184507 0.517492 1.062047
v -0.184507 2.386101 -1.222697
v -0.184507 0.386101 -1.222697
v -0.184507 2.386101 1.222697
v -0.184507 0.386101 1.222697
v -0.184507 2.254711 -1.062047
v -0.184507 0.517492 -1.062047
v -0.184507 2.254711 1.062047
v -0.184507 0.517492 1.062047
v -0.152961 2.254711 -1.062047
v -0.152961 0.517492 -1.062047
v -0.152961 2.254711 1.062047
v -0.152961 0.517492 1.062047
v 0.184507 0.386101 -1.222697
v 0.184507 0.386101 1.222697
v 0.184507 2.386101 1.222697
v 0.184507 2.386101 -1.222697
v 1.372157 0.752082 -0.775215
v 1.372157 0.752082 0.775214
v 1.372157 2.020121 0.775214
v 1.372157 2.020121 -0.775215
v 0.285699 0.012840 0.340654
v 0.285699 0.869225 0.340654
v 0.285699 0.012840 -0.340654
v 0.285699 0.869225 -0.340654
v 0.832633 0.012840 0.340654
v 0.832633 0.869225 0.340654
v 0.832633 0.012840 -0.340654
v 0.832633 0.869225 -0.340654
v -0.054600 -0.013516 0.799138
v -0.054600 0.108023 0.799138
v -0.054600 -0.013516 -0.799138
v -0.054600 0.108023 -0.799138
v 1.188683 -0.013516 0.799138
v 1.188683 0.108023 0.799138
v 1.188683 -0.013516 -0.799138
v 1.188683 0.108023 -0.799138
v 0.360439 0.005713 -1.723627
v 0.360439 3.074790 -1.723627
v 0.360439 0.005713 -3.097528
v 0.360439 3.074790 -3.097528
v 2.360439 0.005713 -1.723627
v 2.360439 3.074790 -1.723627
v 2.360439 0.005713 -3.097528
v 2.360439 3.074790 -3.097528
v -1.440922 0.148362 0.528861
v -1.440922 0.009149 0.528861
v -1.440922 0.148362 -1.471139
v -1.440922 0.009149 -1.471139
v -0.727069 0.148362 0.528861
v -0.727069 0.009149 0.528861
v -0.727069 0.148362 -1.471139
v -0.727069 0.009149 -1.471139
vn 1.0000 -0.0000 -0.0000
vn -0.0000 -0.0000 1.0000
vn -1.0000 -0.0000 -0.0000
vn -0.0000 -0.0000 -1.0000
vn -0.0000 1.0000 -0.0000
vn -0.0000 -1.0000 -0.0000
vn -0.3016 -0.0000 0.9534
vn -0.2505 0.9681 -0.0000
vn -0.2505 -0.9681 -0.0000
vn -0.3016 -0.0000 -0.9534
vt 0.619920 0.878956
vt 0.611855 0.892713
vt 0.619920 0.892713
vt 0.619920 0.716100
vt 0.611855 0.737792
vt 0.619920 0.737792
vt 0.619920 0.952449
vt 0.611855 0.966207
vt 0.619920 0.966207
vt 0.619920 0.797528
vt 0.611855 0.819220
vt 0.619920 0.819220
vt 0.077053 0.615821
vt 0.090811 0.637517
vt 0.090811 0.615821
vt 0.818013 0.992955
vt 0.659740 0.743345
vt 0.659740 0.992955
vt 0.161485 0.541550
vt 0.136979 0.704025
vt 0.136979 0.541550
vt 0.163338 0.578638
vt 0.187839 0.711520
vt 0.163338 0.711520
vt 0.090817 0.690726
vt 0.011018 0.586057
vt 0.090817 0.565639
vt 0.630490 0.742958
vt 0.605985 0.905434
vt 0.605985 0.742958
vt 0.691777 0.222487
vt 0.131217 0.562565
vt 0.155718 0.695448
vt 0.131217 0.695448
vt 0.612500 0.716594
vt 0.266566 0.951608
vt 0.218688 0.646082
vt 0.268116 0.704418
vt 0.593247 0.703407
vt 0.639201 0.992419
vt 0.596348 0.949753
vt 0.590497 0.951637
vt 0.220602 0.994393
vt 0.263566 0.954737
vt 0.258962 0.698376
vt 0.639891 0.644628
vt 0.601576 0.698375
vt 0.616606 0.808717
vt 0.618701 0.949845
vt 0.616606 0.949845
vt 0.273249 0.955629
vt 0.593298 0.696686
vt 0.596399 0.954079
vt 0.622150 0.916719
vt 0.620055 0.801296
vt 0.622150 0.801296
vt 0.617065 0.922958
vt 0.614971 0.781830
vt 0.617065 0.781830
vt 0.615530 0.776558
vt 0.617624 0.891981
vt 0.615530 0.891981
vt 0.612813 0.746291
vt 0.616711 0.904001
vt 0.612813 0.899234
vt 0.809688 0.809323
vt 0.680703 0.814089
vt 0.684601 0.809323
vt 0.662898 0.757143
vt 0.791883 0.752376
vt 0.787985 0.757143
vt 0.662898 0.910086
vt 0.659000 0.752376
vt 0.659927 0.856822
vt 0.744177 0.753810
vt 0.744177 0.856822
vt 0.093361 0.702778
vt 0.013849 0.574800
vt 0.093361 0.549834
vt 0.093630 0.696577
vt 0.014118 0.568599
vt 0.093630 0.543634
vt 0.014136 0.564089
vt 0.093934 0.668757
vt 0.014136 0.689175
vt 0.763343 0.954360
vt 0.718076 0.897461
vt 0.718076 0.954360
vt 0.259708 0.982534
vt 0.223395 0.925634
vt 0.223395 0.982534
vt 0.759358 0.957803
vt 0.714091 0.900903
vt 0.714091 0.957803
vt 0.637893 0.974783
vt 0.601580 0.917883
vt 0.601580 0.974783
vt 0.029868 0.969228
vt 0.066189 0.923961
vt 0.029868 0.923961
vt 0.125926 0.969228
vt 0.162247 0.923961
vt 0.125926 0.923961
vt 0.770697 0.751755
vt 0.762621 0.857947
vt 0.770697 0.857947
vt 0.780952 0.763762
vt 0.772877 0.846308
vt 0.780952 0.846308
vt 0.793269 0.746176
vt 0.785194 0.852367
vt 0.793269 0.852367
vt 0.759845 0.765764
vt 0.751770 0.848310
vt 0.759845 0.848310
vt 0.011266 0.681301
vt 0.093831 0.575109
vt 0.011266 0.575109
vt 0.657381 0.858024
vt 0.739945 0.751832
vt 0.657381 0.751832
vt 0.006615 0.529148
vt 0.207963 0.991945
vt 0.207963 0.527598
vt 0.825242 0.991942
vt 0.652395 0.747495
vt 0.653945 0.991942
vt 0.211715 0.733062
vt 0.120431 0.529148
vt 0.120431 0.733062
vt 0.821474 0.991067
vt 0.661412 0.745269
vt 0.661412 0.991067
vt 0.695404 0.851589
vt 0.786688 0.984406
vt 0.786688 0.851589
vt 0.007202 0.540533
vt 0.098486 0.673351
vt 0.098486 0.540533
vt 0.024769 0.716722
vt 0.015519 0.849605
vt 0.015519 0.716722
vt 0.080600 0.534984
vt 0.071350 0.582380
vt 0.071350 0.534984
vt 0.167472 0.532782
vt 0.158222 0.665665
vt 0.158222 0.532782
vt 0.149585 0.534984
vt 0.140336 0.582380
vt 0.140336 0.534984
vt 0.722092 0.516147
vt 0.017480 0.265547
vt 0.721848 0.264864
vt 0.060209 0.538566
vt 0.012803 0.671449
vt 0.012803 0.538566
vt 0.611855 0.878956
vt 0.611855 0.716100
vt 0.611855 0.952449
vt 0.611855 0.797528
vt 0.077053 0.637517
vt 0.818013 0.743345
vt 0.161485 0.704025
vt 0.187839 0.578638
vt 0.011018 0.670307
vt 0.630490 0.905434
vt 0.155718 0.562565
vt 0.220238 0.991342
vt 0.639201 0.645239
vt 0.639662 0.992843
vt 0.215997 0.644628
vt 0.618701 0.808717
vt 0.268598 0.698236
vt 0.620055 0.916719
vt 0.614971 0.922958
vt 0.617624 0.776558
vt 0.616711 0.741525
vt 0.813586 0.814089
vt 0.659000 0.914852
vt 0.659927 0.753810
vt 0.013849 0.677812
vt 0.014118 0.671612
vt 0.093934 0.584507
vt 0.763343 0.897461
vt 0.259708 0.925634
vt 0.759358 0.900903
vt 0.637893 0.917883
vt 0.066189 0.969228
vt 0.162247 0.969228
vt 0.762621 0.751755
vt 0.772877 0.763762
vt 0.785194 0.746176
vt 0.751770 0.765764
vt 0.093831 0.681301
vt 0.739945 0.858024
vt 0.011266 0.993495
vt 0.826792 0.745944
vt 0.211715 0.529148
vt 0.821474 0.745269
vt 0.695404 0.984406
vt 0.007202 0.673351
vt 0.024769 0.849605
vt 0.080600 0.582380
vt 0.167472 0.665665
vt 0.149585 0.582380
vt 0.017724 0.516830
vt 0.060209 0.671449
s 0
f 3/1/1 2/2/1 1/3/1
f 7/4/2 4/5/2 3/6/2
f 5/7/3 8/8/3 7/9/3
f 1/10/4 6/11/4 5/12/4
f 1/13/5 7/14/5 3/15/5
f 6/16/6 4/17/6 8/18/6
f 36/19/6 11/20/6 9/21/6
f 11/22/4 34/23/4 12/24/4
f 14/25/7 40/26/7 13/27/7
f 10/28/5 34/29/5 33/30/5
f 10/31/5 21/31/5 22/31/5
f 36/32/2 10/33/2 33/34/2
f 17/35/5 27/35/5 25/35/5
f 12/31/5 22/31/5 24/31/5
f 9/31/5 23/31/5 21/31/5
f 11/31/5 24/31/5 23/31/5
f 18/36/1 21/37/1 17/38/1
f 19/39/1 24/40/1 20/41/1
f 17/42/1 23/43/1 19/44/1
f 20/45/1 22/46/1 18/47/1
f 26/48/6 32/49/6 28/50/6
f 18/35/5 25/35/5 26/35/5
f 20/35/5 26/35/5 28/35/5
f 19/35/5 28/35/5 27/35/5
f 29/51/1 32/52/1 30/53/1
f 28/54/2 31/55/2 27/56/2
f 27/57/5 29/58/5 25/59/5
f 25/60/4 30/61/4 26/62/4
f 14/63/3 34/64/3 16/65/3
f 16/66/3 35/67/3 15/68/3
f 13/69/3 33/70/3 14/71/3
f 15/72/3 36/73/3 13/69/3
f 39/74/3 37/75/3 38/76/3
f 16/77/8 37/78/8 14/79/8
f 13/80/9 39/81/9 15/82/9
f 15/83/10 38/84/10 16/85/10
f 43/86/1 42/87/1 41/88/1
f 47/89/2 44/90/2 43/91/2
f 45/92/3 48/93/3 47/94/3
f 41/95/4 46/96/4 45/97/4
f 41/98/5 47/99/5 43/100/5
f 46/101/6 44/102/6 48/103/6
f 51/104/1 50/105/1 49/106/1
f 55/107/2 52/108/2 51/109/2
f 53/110/3 56/111/3 55/112/3
f 49/113/4 54/114/4 53/115/4
f 49/116/5 55/117/5 51/118/5
f 54/119/6 52/120/6 56/121/6
f 59/122/1 58/123/1 57/124/1
f 63/125/2 60/126/2 59/127/2
f 61/128/3 64/129/3 63/130/3
f 57/131/4 62/132/4 61/133/4
f 57/134/5 63/135/5 59/136/5
f 62/137/6 60/138/6 64/139/6
f 66/140/1 67/141/1 65/142/1
f 68/143/2 71/144/2 67/145/2
f 72/146/3 69/147/3 71/148/3
f 70/149/4 65/150/4 69/151/4
f 71/152/6 65/153/6 67/154/6
f 68/155/5 70/156/5 72/157/5
f 3/1/1 4/158/1 2/2/1
f 7/4/2 8/159/2 4/5/2
f 5/7/3 6/160/3 8/8/3
f 1/10/4 2/161/4 6/11/4
f 1/13/5 5/162/5 7/14/5
f 6/16/6 2/163/6 4/17/6
f 36/19/6 35/164/6 11/20/6
f 11/22/4 35/165/4 34/23/4
f 14/25/7 37/166/7 40/26/7
f 10/28/5 12/167/5 34/29/5
f 10/31/5 9/31/5 21/31/5
f 36/32/2 9/168/2 10/33/2
f 17/35/5 19/35/5 27/35/5
f 12/31/5 10/31/5 22/31/5
f 9/31/5 11/31/5 23/31/5
f 11/31/5 12/31/5 24/31/5
f 18/36/1 22/169/1 21/37/1
f 19/39/1 23/170/1 24/40/1
f 17/42/1 21/171/1 23/43/1
f 20/45/1 24/172/1 22/46/1
f 26/48/6 30/173/6 32/49/6
f 18/35/5 17/35/5 25/35/5
f 20/35/5 18/35/5 26/35/5
f 19/35/5 20/35/5 28/35/5
f 29/51/1 31/174/1 32/52/1
f 28/54/2 32/175/2 31/55/2
f 27/57/5 31/176/5 29/58/5
f 25/60/4 29/177/4 30/61/4
f 14/63/3 33/178/3 34/64/3
f 16/66/3 34/179/3 35/67/3
f 13/69/3 36/73/3 33/70/3
f 15/72/3 35/180/3 36/73/3
f 39/74/3 40/181/3 37/75/3
f 16/77/8 38/182/8 37/78/8
f 13/80/9 40/183/9 39/81/9
f 15/83/10 39/184/10 38/84/10
f 43/86/1 44/185/1 42/87/1
f 47/89/2 48/186/2 44/90/2
f 45/92/3 46/187/3 48/93/3
f 41/95/4 42/188/4 46/96/4
f 41/98/5 45/189/5 47/99/5
f 46/101/6 42/190/6 44/102/6
f 51/104/1 52/191/1 50/105/1
f 55/107/2 56/192/2 52/108/2
f 53/110/3 54/193/3 56/111/3
f 49/113/4 50/194/4 54/114/4
f 49/116/5 53/195/5 55/117/5
f 54/119/6 50/196/6 52/120/6
f 59/122/1 60/197/1 58/123/1
f 63/125/2 64/198/2 60/126/2
f 61/128/3 62/199/3 64/129/3
f 57/131/4 58/200/4 62/132/4
f 57/134/5 61/201/5 63/135/5
f 62/137/6 58/202/6 60/138/6
f 66/140/1 68/203/1 67/141/1
f 68/143/2 72/204/2 71/144/2
f 72/146/3 70/205/3 69/147/3
f 70/149/4 66/206/4 65/150/4
f 71/152/6 69/207/6 65/153/6
f 68/155/5 66/208/5 70/156/5
